<svg xmlns="http://www.w3.org/2000/svg" viewBox="0 0 512 864"><g fill="#fff"><g transform="translate(0 0) translate(64 108) scale(1 1) translate(-64 -108) translate(0 0)"><path d='M40 77h48l20 24-15 18-9-11v56H44v-56l-9 11-15-18z'/><path d='M44 128h40v36H44z' opacity='.5'/></g><g transform="translate(128 0) translate(64 108) scale(1 1) translate(-64 -108) translate(-1.3 -2)"><path d='M40 77h48l20 24-15 18-9-11v56H44v-56l-9 11-15-18z'/><path d='M44 128h40v36H44z' opacity='.5'/></g><g transform="translate(256 0) translate(64 108) scale(1 1) translate(-64 -108) translate(0 0)"><path d='M40 77h48l20 24-15 18-9-11v56H44v-56l-9 11-15-18z'/><path d='M44 128h40v36H44z' opacity='.5'/></g><g transform="translate(384 0) translate(64 108) scale(1 1) translate(-64 -108) translate(1.3 -2)"><path d='M40 77h48l20 24-15 18-9-11v56H44v-56l-9 11-15-18z'/><path d='M44 128h40v36H44z' opacity='.5'/></g><g transform="translate(0 216) translate(64 108) scale(0.72 1) translate(-64 -108) translate(2 0)"><path d='M40 77h48l20 24-15 18-9-11v56H44v-56l-9 11-15-18z'/><path d='M44 128h40v36H44z' opacity='.5'/></g><g transform="translate(128 216) translate(64 108) scale(0.72 1) translate(-64 -108) translate(0.7 -2)"><path d='M40 77h48l20 24-15 18-9-11v56H44v-56l-9 11-15-18z'/><path d='M44 128h40v36H44z' opacity='.5'/></g><g transform="translate(256 216) translate(64 108) scale(0.72 1) translate(-64 -108) translate(2 0)"><path d='M40 77h48l20 24-15 18-9-11v56H44v-56l-9 11-15-18z'/><path d='M44 128h40v36H44z' opacity='.5'/></g><g transform="translate(384 216) translate(64 108) scale(0.72 1) translate(-64 -108) translate(3.3 -2)"><path d='M40 77h48l20 24-15 18-9-11v56H44v-56l-9 11-15-18z'/><path d='M44 128h40v36H44z' opacity='.5'/></g><g transform="translate(0 432) translate(64 108) scale(0.92 1) translate(-64 -108) translate(-1 0)"><path d='M40 77h48l20 24-15 18-9-11v56H44v-56l-9 11-15-18z'/><path d='M44 128h40v36H44z' opacity='.5'/></g><g transform="translate(128 432) translate(64 108) scale(0.92 1) translate(-64 -108) translate(-2.3 -2)"><path d='M40 77h48l20 24-15 18-9-11v56H44v-56l-9 11-15-18z'/><path d='M44 128h40v36H44z' opacity='.5'/></g><g transform="translate(256 432) translate(64 108) scale(0.92 1) translate(-64 -108) translate(-1 0)"><path d='M40 77h48l20 24-15 18-9-11v56H44v-56l-9 11-15-18z'/><path d='M44 128h40v36H44z' opacity='.5'/></g><g transform="translate(384 432) translate(64 108) scale(0.92 1) translate(-64 -108) translate(0.30000000000000004 -2)"><path d='M40 77h48l20 24-15 18-9-11v56H44v-56l-9 11-15-18z'/><path d='M44 128h40v36H44z' opacity='.5'/></g><g transform="translate(0 648) translate(64 108) scale(0.72 1) translate(-64 -108) translate(-2 0)"><path d='M40 77h48l20 24-15 18-9-11v56H44v-56l-9 11-15-18z'/><path d='M44 128h40v36H44z' opacity='.5'/></g><g transform="translate(128 648) translate(64 108) scale(0.72 1) translate(-64 -108) translate(-3.3 -2)"><path d='M40 77h48l20 24-15 18-9-11v56H44v-56l-9 11-15-18z'/><path d='M44 128h40v36H44z' opacity='.5'/></g><g transform="translate(256 648) translate(64 108) scale(0.72 1) translate(-64 -108) translate(-2 0)"><path d='M40 77h48l20 24-15 18-9-11v56H44v-56l-9 11-15-18z'/><path d='M44 128h40v36H44z' opacity='.5'/></g><g transform="translate(384 648) translate(64 108) scale(0.72 1) translate(-64 -108) translate(-0.7 -2)"><path d='M40 77h48l20 24-15 18-9-11v56H44v-56l-9 11-15-18z'/><path d='M44 128h40v36H44z' opacity='.5'/></g></g></svg>